<svg width="350" height="87" viewBox="0 0 350 87" fill="none" xmlns="http://www.w3.org/2000/svg">
<path d="M26 35L48.5167 74H3.48334L26 35Z" fill="#ECA400"/>
<path d="M84.6816 14.1299L77.3544 47.1005L52.4646 24.2696L84.6816 14.1299Z" fill="#ECA400"/>
<path d="M104.962 56.9725L97.5463 36.6314L118.87 40.38L104.962 56.9725Z" fill="#ECA400"/>
<path d="M144.054 50.1903L133.195 40.2495L147.234 35.8152L144.054 50.1903Z" fill="#ECA400"/>
<path d="M111.311 36.7867L103.896 16.4456L125.22 20.1942L111.311 36.7867Z" fill="#ECA400"/>
<path d="M179 36L191.124 57H166.876L179 36Z" fill="#ECA400"/>
<path d="M201.496 41.4337L209.841 43.7481L203.664 49.8182L201.496 41.4337Z" fill="#ECA400"/>
<path d="M257.5 52L268.325 70.75H246.675L257.5 52Z" fill="#ECA400"/>
<path d="M292 38L297.196 47H286.804L292 38Z" fill="#ECA400"/>
<path d="M314.481 44.9264L326.835 48.9406L317.182 57.6329L314.481 44.9264Z" fill="#ECA400"/>
<path d="M340.5 26L348.727 40.25H332.273L340.5 26Z" fill="#ECA400"/>
</svg>
