<svg width="375" height="126" viewBox="0 0 375 126" fill="none" xmlns="http://www.w3.org/2000/svg">
<rect y="-4" width="375" height="130" fill="url(#paint0_linear_37_131)"/>
<path d="M48 65.0515L70.5167 104.052H25.4833L48 65.0515Z" fill="#001d4a"/>
<path d="M106.682 44.1814L99.3544 77.152L74.4646 54.3211L106.682 44.1814Z" fill="#001d4a"/>
<path d="M126.962 87.0241L119.546 66.6829L140.87 70.4316L126.962 87.0241Z" fill="#001d4a"/>
<path d="M166.054 80.2418L155.195 70.3011L169.234 65.8667L166.054 80.2418Z" fill="#001d4a"/>
<path d="M133.311 66.8383L125.896 46.4971L147.22 50.2458L133.311 66.8383Z" fill="#001d4a"/>
<path d="M201 66.0515L213.124 87.0515H188.876L201 66.0515Z" fill="#001d4a"/>
<path d="M223.496 71.4853L231.841 73.7996L225.664 79.8697L223.496 71.4853Z" fill="#001d4a"/>
<path d="M279.5 82.0515L290.325 100.802H268.675L279.5 82.0515Z" fill="#001d4a"/>
<path d="M314 68.0515L319.196 77.0515H308.804L314 68.0515Z" fill="#001d4a"/>
<path d="M336.481 74.9779L348.835 78.9922L339.182 87.6844L336.481 74.9779Z" fill="#001d4a"/>
<path d="M362.5 56.0515L370.727 70.3015H354.273L362.5 56.0515Z" fill="#001d4a"/>
<defs>
<linearGradient id="paint0_linear_37_131" x1="187.5" y1="-4" x2="187.5" y2="126" gradientUnits="userSpaceOnUse">
<stop stop-color="white" stop-opacity="0"/>
<stop offset="1" stop-color="#006992"/>
</linearGradient>
</defs>
</svg>
